<svg width="100%" height="100%" xmlns="http://www.w3.org/2000/svg">
<rect width="100%" height="100%" fill="#ffffff"/>
<rect x="0.0%" y="0.0%" width="100.0%" height="1%" fill="#ebebeb"/>
<rect x="0.0%" y="1.0%" width="100.0%" height="1%" fill="#ebebeb"/>
<rect x="0.0%" y="2.0%" width="100.0%" height="1%" fill="#ebebeb"/>
<rect x="0.0%" y="3.0%" width="100.0%" height="1%" fill="#ebebeb"/>
<rect x="0.0%" y="4.0%" width="100.0%" height="1%" fill="#ebebeb"/>
<rect x="0.0%" y="5.0%" width="100.0%" height="1%" fill="#ebebeb"/>
<rect x="0.0%" y="6.0%" width="100.0%" height="1%" fill="#ebebeb"/>
<rect x="0.0%" y="7.000000000000001%" width="100.0%" height="1%" fill="#ebebeb"/>
<rect x="0.0%" y="8.0%" width="100.0%" height="1%" fill="#ebebeb"/>
<rect x="0.0%" y="9.0%" width="100.0%" height="1%" fill="#ebebeb"/>
<rect x="0.0%" y="10.0%" width="100.0%" height="1%" fill="#ebebeb"/>
<rect x="0.0%" y="11.0%" width="100.0%" height="1%" fill="#ebebeb"/>
<rect x="0.0%" y="12.0%" width="100.0%" height="1%" fill="#ebebeb"/>
<rect x="0.0%" y="13.0%" width="100.0%" height="1%" fill="#ebebeb"/>
<rect x="0.0%" y="14.000000000000002%" width="100.0%" height="1%" fill="#ebebeb"/>
<rect x="0.0%" y="15.0%" width="100.0%" height="1%" fill="#ebebeb"/>
<rect x="0.0%" y="16.0%" width="100.0%" height="1%" fill="#ebebeb"/>
<rect x="0.0%" y="17.0%" width="100.0%" height="1%" fill="#ebebeb"/>
<rect x="0.0%" y="18.0%" width="100.0%" height="1%" fill="#ebebeb"/>
<rect x="0.0%" y="19.0%" width="100.0%" height="1%" fill="#ebebeb"/>
<rect x="0.0%" y="20.0%" width="100.0%" height="1%" fill="#ebebeb"/>
<rect x="0.0%" y="21.0%" width="100.0%" height="1%" fill="#ebebeb"/>
<rect x="0.0%" y="22.0%" width="100.0%" height="1%" fill="#ebebeb"/>
<rect x="0.0%" y="23.0%" width="100.0%" height="1%" fill="#ebebeb"/>
<rect x="0.0%" y="24.0%" width="100.0%" height="1%" fill="#ebebeb"/>
<rect x="0.0%" y="25.0%" width="100.0%" height="1%" fill="#ebebeb"/>
<rect x="0.0%" y="26.0%" width="100.0%" height="1%" fill="#ebebeb"/>
<rect x="0.0%" y="27.0%" width="100.0%" height="1%" fill="#ebebeb"/>
<rect x="0.0%" y="28.000000000000004%" width="100.0%" height="1%" fill="#ebebeb"/>
<rect x="0.0%" y="28.999999999999996%" width="100.0%" height="1%" fill="#ebebeb"/>
<rect x="0.0%" y="30.0%" width="100.0%" height="1%" fill="#ebebeb"/>
<rect x="0.0%" y="31.0%" width="100.0%" height="1%" fill="#ebebeb"/>
<rect x="0.0%" y="32.0%" width="100.0%" height="1%" fill="#ebebeb"/>
<rect x="0.0%" y="33.0%" width="100.0%" height="1%" fill="#ebebeb"/>
<rect x="0.0%" y="34.0%" width="100.0%" height="1%" fill="#ebebeb"/>
<rect x="0.0%" y="35.0%" width="100.0%" height="1%" fill="#ebebeb"/>
<rect x="0.0%" y="36.0%" width="100.0%" height="1%" fill="#ebebeb"/>
<rect x="0.0%" y="37.0%" width="100.0%" height="1%" fill="#ebebeb"/>
<rect x="0.0%" y="38.0%" width="100.0%" height="1%" fill="#ebebeb"/>
<rect x="0.0%" y="39.0%" width="100.0%" height="1%" fill="#ebebeb"/>
<rect x="0.0%" y="40.0%" width="100.0%" height="1%" fill="#ebebeb"/>
<rect x="0.0%" y="41.0%" width="100.0%" height="1%" fill="#ebebeb"/>
<rect x="0.0%" y="42.0%" width="100.0%" height="1%" fill="#ebebeb"/>
<rect x="0.0%" y="43.0%" width="100.0%" height="1%" fill="#ebebeb"/>
<rect x="0.0%" y="44.0%" width="100.0%" height="1%" fill="#ebebeb"/>
<rect x="0.0%" y="45.0%" width="100.0%" height="1%" fill="#ebebeb"/>
<rect x="0.0%" y="46.0%" width="100.0%" height="1%" fill="#ebebeb"/>
<rect x="0.0%" y="47.0%" width="100.0%" height="1%" fill="#ebebeb"/>
<rect x="0.0%" y="48.0%" width="100.0%" height="1%" fill="#ebebeb"/>
<rect x="0.0%" y="49.0%" width="100.0%" height="1%" fill="#ebebeb"/>
<rect x="0.0%" y="50.0%" width="100.0%" height="1%" fill="#ebebeb"/>
<rect x="0.0%" y="51.0%" width="100.0%" height="1%" fill="#ebebeb"/>
<rect x="0.0%" y="52.0%" width="100.0%" height="1%" fill="#ebebeb"/>
<rect x="0.0%" y="53.0%" width="100.0%" height="1%" fill="#ebebeb"/>
<rect x="0.0%" y="54.0%" width="100.0%" height="1%" fill="#ebebeb"/>
<rect x="0.0%" y="55.00000000000001%" width="61.0%" height="1%" fill="#ebebeb"/>
<rect x="61.0%" y="55.00000000000001%" width="8.0%" height="1%" fill="#131313"/>
<rect x="69.0%" y="55.00000000000001%" width="31.0%" height="1%" fill="#ebebeb"/>
<rect x="0.0%" y="56.00000000000001%" width="60.0%" height="1%" fill="#ebebeb"/>
<rect x="60.0%" y="56.00000000000001%" width="1.0%" height="1%" fill="#131313"/>
<rect x="61.0%" y="56.00000000000001%" width="8.0%" height="1%" fill="#ebebeb"/>
<rect x="69.0%" y="56.00000000000001%" width="1.0%" height="1%" fill="#131313"/>
<rect x="70.0%" y="56.00000000000001%" width="30.0%" height="1%" fill="#ebebeb"/>
<rect x="0.0%" y="56.99999999999999%" width="59.0%" height="1%" fill="#ebebeb"/>
<rect x="59.0%" y="56.99999999999999%" width="1.0%" height="1%" fill="#131313"/>
<rect x="60.0%" y="56.99999999999999%" width="10.0%" height="1%" fill="#ebebeb"/>
<rect x="70.0%" y="56.99999999999999%" width="1.0%" height="1%" fill="#131313"/>
<rect x="71.0%" y="56.99999999999999%" width="28.999999999999996%" height="1%" fill="#ebebeb"/>
<rect x="0.0%" y="57.99999999999999%" width="59.0%" height="1%" fill="#ebebeb"/>
<rect x="59.0%" y="57.99999999999999%" width="1.0%" height="1%" fill="#131313"/>
<rect x="60.0%" y="57.99999999999999%" width="10.0%" height="1%" fill="#ebebeb"/>
<rect x="70.0%" y="57.99999999999999%" width="1.0%" height="1%" fill="#131313"/>
<rect x="71.0%" y="57.99999999999999%" width="28.999999999999996%" height="1%" fill="#ebebeb"/>
<rect x="0.0%" y="59.0%" width="59.0%" height="1%" fill="#ebebeb"/>
<rect x="59.0%" y="59.0%" width="1.0%" height="1%" fill="#131313"/>
<rect x="60.0%" y="59.0%" width="5.0%" height="1%" fill="#ebebeb"/>
<rect x="65.0%" y="59.0%" width="4.0%" height="1%" fill="#131313"/>
<rect x="69.0%" y="59.0%" width="1.0%" height="1%" fill="#ebebeb"/>
<rect x="70.0%" y="59.0%" width="1.0%" height="1%" fill="#131313"/>
<rect x="71.0%" y="59.0%" width="28.999999999999996%" height="1%" fill="#ebebeb"/>
<rect x="0.0%" y="60.0%" width="59.0%" height="1%" fill="#ebebeb"/>
<rect x="59.0%" y="60.0%" width="1.0%" height="1%" fill="#131313"/>
<rect x="60.0%" y="60.0%" width="5.0%" height="1%" fill="#ebebeb"/>
<rect x="65.0%" y="60.0%" width="1.0%" height="1%" fill="#131313"/>
<rect x="66.0%" y="60.0%" width="2.0%" height="1%" fill="#0007ff"/>
<rect x="68.0%" y="60.0%" width="1.0%" height="1%" fill="#131313"/>
<rect x="69.0%" y="60.0%" width="1.0%" height="1%" fill="#ebebeb"/>
<rect x="70.0%" y="60.0%" width="1.0%" height="1%" fill="#131313"/>
<rect x="71.0%" y="60.0%" width="28.999999999999996%" height="1%" fill="#ebebeb"/>
<rect x="0.0%" y="61.0%" width="59.0%" height="1%" fill="#ebebeb"/>
<rect x="59.0%" y="61.0%" width="1.0%" height="1%" fill="#131313"/>
<rect x="60.0%" y="61.0%" width="5.0%" height="1%" fill="#ebebeb"/>
<rect x="65.0%" y="61.0%" width="4.0%" height="1%" fill="#131313"/>
<rect x="69.0%" y="61.0%" width="1.0%" height="1%" fill="#ebebeb"/>
<rect x="70.0%" y="61.0%" width="1.0%" height="1%" fill="#131313"/>
<rect x="71.0%" y="61.0%" width="28.999999999999996%" height="1%" fill="#ebebeb"/>
<rect x="0.0%" y="62.0%" width="59.0%" height="1%" fill="#ebebeb"/>
<rect x="59.0%" y="62.0%" width="1.0%" height="1%" fill="#131313"/>
<rect x="60.0%" y="62.0%" width="10.0%" height="1%" fill="#ebebeb"/>
<rect x="70.0%" y="62.0%" width="1.0%" height="1%" fill="#131313"/>
<rect x="71.0%" y="62.0%" width="5.0%" height="1%" fill="#0007ff"/>
<rect x="76.0%" y="62.0%" width="24.0%" height="1%" fill="#ebebeb"/>
<rect x="0.0%" y="63.0%" width="59.0%" height="1%" fill="#ebebeb"/>
<rect x="59.0%" y="63.0%" width="1.0%" height="1%" fill="#131313"/>
<rect x="60.0%" y="63.0%" width="1.0%" height="1%" fill="#ebebeb"/>
<rect x="61.0%" y="63.0%" width="4.0%" height="1%" fill="#131313"/>
<rect x="65.0%" y="63.0%" width="5.0%" height="1%" fill="#ebebeb"/>
<rect x="70.0%" y="63.0%" width="6.0%" height="1%" fill="#131313"/>
<rect x="76.0%" y="63.0%" width="24.0%" height="1%" fill="#ebebeb"/>
<rect x="0.0%" y="64.0%" width="59.0%" height="1%" fill="#ebebeb"/>
<rect x="59.0%" y="64.0%" width="1.0%" height="1%" fill="#131313"/>
<rect x="60.0%" y="64.0%" width="1.0%" height="1%" fill="#ebebeb"/>
<rect x="61.0%" y="64.0%" width="1.0%" height="1%" fill="#131313"/>
<rect x="62.0%" y="64.0%" width="2.0%" height="1%" fill="#0007ff"/>
<rect x="64.0%" y="64.0%" width="1.0%" height="1%" fill="#131313"/>
<rect x="65.0%" y="64.0%" width="5.0%" height="1%" fill="#ebebeb"/>
<rect x="70.0%" y="64.0%" width="1.0%" height="1%" fill="#131313"/>
<rect x="71.0%" y="64.0%" width="5.0%" height="1%" fill="#ebebeb"/>
<rect x="76.0%" y="64.0%" width="1.0%" height="1%" fill="#131313"/>
<rect x="77.0%" y="64.0%" width="23.0%" height="1%" fill="#ebebeb"/>
<rect x="0.0%" y="65.0%" width="59.0%" height="1%" fill="#ebebeb"/>
<rect x="59.0%" y="65.0%" width="1.0%" height="1%" fill="#131313"/>
<rect x="60.0%" y="65.0%" width="1.0%" height="1%" fill="#ebebeb"/>
<rect x="61.0%" y="65.0%" width="4.0%" height="1%" fill="#131313"/>
<rect x="65.0%" y="65.0%" width="5.0%" height="1%" fill="#ebebeb"/>
<rect x="70.0%" y="65.0%" width="1.0%" height="1%" fill="#131313"/>
<rect x="71.0%" y="65.0%" width="5.0%" height="1%" fill="#ebebeb"/>
<rect x="76.0%" y="65.0%" width="1.0%" height="1%" fill="#131313"/>
<rect x="77.0%" y="65.0%" width="23.0%" height="1%" fill="#ebebeb"/>
<rect x="0.0%" y="66.0%" width="59.0%" height="1%" fill="#ebebeb"/>
<rect x="59.0%" y="66.0%" width="1.0%" height="1%" fill="#131313"/>
<rect x="60.0%" y="66.0%" width="10.0%" height="1%" fill="#ebebeb"/>
<rect x="70.0%" y="66.0%" width="1.0%" height="1%" fill="#131313"/>
<rect x="71.0%" y="66.0%" width="5.0%" height="1%" fill="#ebebeb"/>
<rect x="76.0%" y="66.0%" width="1.0%" height="1%" fill="#131313"/>
<rect x="77.0%" y="66.0%" width="23.0%" height="1%" fill="#ebebeb"/>
<rect x="0.0%" y="67.0%" width="59.0%" height="1%" fill="#ebebeb"/>
<rect x="59.0%" y="67.0%" width="1.0%" height="1%" fill="#131313"/>
<rect x="60.0%" y="67.0%" width="10.0%" height="1%" fill="#ebebeb"/>
<rect x="70.0%" y="67.0%" width="1.0%" height="1%" fill="#131313"/>
<rect x="71.0%" y="67.0%" width="5.0%" height="1%" fill="#ebebeb"/>
<rect x="76.0%" y="67.0%" width="1.0%" height="1%" fill="#131313"/>
<rect x="77.0%" y="67.0%" width="23.0%" height="1%" fill="#ebebeb"/>
<rect x="0.0%" y="68.0%" width="59.0%" height="1%" fill="#ebebeb"/>
<rect x="59.0%" y="68.0%" width="1.0%" height="1%" fill="#131313"/>
<rect x="60.0%" y="68.0%" width="5.0%" height="1%" fill="#ebebeb"/>
<rect x="65.0%" y="68.0%" width="4.0%" height="1%" fill="#131313"/>
<rect x="69.0%" y="68.0%" width="7.000000000000001%" height="1%" fill="#ebebeb"/>
<rect x="76.0%" y="68.0%" width="1.0%" height="1%" fill="#131313"/>
<rect x="77.0%" y="68.0%" width="23.0%" height="1%" fill="#ebebeb"/>
<rect x="0.0%" y="69.0%" width="34.0%" height="1%" fill="#ebebeb"/>
<rect x="34.0%" y="69.0%" width="5.0%" height="1%" fill="#131313"/>
<rect x="39.0%" y="69.0%" width="20.0%" height="1%" fill="#ebebeb"/>
<rect x="59.0%" y="69.0%" width="1.0%" height="1%" fill="#131313"/>
<rect x="60.0%" y="69.0%" width="5.0%" height="1%" fill="#ebebeb"/>
<rect x="65.0%" y="69.0%" width="1.0%" height="1%" fill="#131313"/>
<rect x="66.0%" y="69.0%" width="2.0%" height="1%" fill="#0007ff"/>
<rect x="68.0%" y="69.0%" width="1.0%" height="1%" fill="#131313"/>
<rect x="69.0%" y="69.0%" width="7.000000000000001%" height="1%" fill="#ebebeb"/>
<rect x="76.0%" y="69.0%" width="1.0%" height="1%" fill="#131313"/>
<rect x="77.0%" y="69.0%" width="23.0%" height="1%" fill="#ebebeb"/>
<rect x="0.0%" y="70.0%" width="33.0%" height="1%" fill="#ebebeb"/>
<rect x="33.0%" y="70.0%" width="1.0%" height="1%" fill="#131313"/>
<rect x="34.0%" y="70.0%" width="5.0%" height="1%" fill="#ebebeb"/>
<rect x="39.0%" y="70.0%" width="1.0%" height="1%" fill="#131313"/>
<rect x="40.0%" y="70.0%" width="19.0%" height="1%" fill="#ebebeb"/>
<rect x="59.0%" y="70.0%" width="1.0%" height="1%" fill="#131313"/>
<rect x="60.0%" y="70.0%" width="5.0%" height="1%" fill="#ebebeb"/>
<rect x="65.0%" y="70.0%" width="4.0%" height="1%" fill="#131313"/>
<rect x="69.0%" y="70.0%" width="7.000000000000001%" height="1%" fill="#ebebeb"/>
<rect x="76.0%" y="70.0%" width="1.0%" height="1%" fill="#131313"/>
<rect x="77.0%" y="70.0%" width="23.0%" height="1%" fill="#ebebeb"/>
<rect x="0.0%" y="71.0%" width="32.0%" height="1%" fill="#ebebeb"/>
<rect x="32.0%" y="71.0%" width="1.0%" height="1%" fill="#131313"/>
<rect x="33.0%" y="71.0%" width="7.000000000000001%" height="1%" fill="#ebebeb"/>
<rect x="40.0%" y="71.0%" width="1.0%" height="1%" fill="#131313"/>
<rect x="41.0%" y="71.0%" width="18.0%" height="1%" fill="#ebebeb"/>
<rect x="59.0%" y="71.0%" width="1.0%" height="1%" fill="#131313"/>
<rect x="60.0%" y="71.0%" width="16.0%" height="1%" fill="#ebebeb"/>
<rect x="76.0%" y="71.0%" width="1.0%" height="1%" fill="#131313"/>
<rect x="77.0%" y="71.0%" width="23.0%" height="1%" fill="#ebebeb"/>
<rect x="0.0%" y="72.0%" width="32.0%" height="1%" fill="#ebebeb"/>
<rect x="32.0%" y="72.0%" width="1.0%" height="1%" fill="#131313"/>
<rect x="33.0%" y="72.0%" width="7.000000000000001%" height="1%" fill="#ebebeb"/>
<rect x="40.0%" y="72.0%" width="1.0%" height="1%" fill="#131313"/>
<rect x="41.0%" y="72.0%" width="18.0%" height="1%" fill="#ebebeb"/>
<rect x="59.0%" y="72.0%" width="1.0%" height="1%" fill="#131313"/>
<rect x="60.0%" y="72.0%" width="16.0%" height="1%" fill="#ebebeb"/>
<rect x="76.0%" y="72.0%" width="1.0%" height="1%" fill="#131313"/>
<rect x="77.0%" y="72.0%" width="23.0%" height="1%" fill="#ebebeb"/>
<rect x="0.0%" y="73.0%" width="32.0%" height="1%" fill="#ebebeb"/>
<rect x="32.0%" y="73.0%" width="1.0%" height="1%" fill="#131313"/>
<rect x="33.0%" y="73.0%" width="3.0%" height="1%" fill="#ebebeb"/>
<rect x="36.0%" y="73.0%" width="2.0%" height="1%" fill="#131313"/>
<rect x="38.0%" y="73.0%" width="2.0%" height="1%" fill="#ebebeb"/>
<rect x="40.0%" y="73.0%" width="1.0%" height="1%" fill="#131313"/>
<rect x="41.0%" y="73.0%" width="18.0%" height="1%" fill="#ebebeb"/>
<rect x="59.0%" y="73.0%" width="1.0%" height="1%" fill="#131313"/>
<rect x="60.0%" y="73.0%" width="3.0%" height="1%" fill="#ebebeb"/>
<rect x="63.0%" y="73.0%" width="2.0%" height="1%" fill="#131313"/>
<rect x="65.0%" y="73.0%" width="11.0%" height="1%" fill="#ebebeb"/>
<rect x="76.0%" y="73.0%" width="2.0%" height="1%" fill="#131313"/>
<rect x="78.0%" y="73.0%" width="22.0%" height="1%" fill="#ebebeb"/>
<rect x="0.0%" y="74.0%" width="32.0%" height="1%" fill="#ebebeb"/>
<rect x="32.0%" y="74.0%" width="1.0%" height="1%" fill="#131313"/>
<rect x="33.0%" y="74.0%" width="3.0%" height="1%" fill="#ebebeb"/>
<rect x="36.0%" y="74.0%" width="2.0%" height="1%" fill="#131313"/>
<rect x="38.0%" y="74.0%" width="25.0%" height="1%" fill="#ebebeb"/>
<rect x="63.0%" y="74.0%" width="2.0%" height="1%" fill="#131313"/>
<rect x="65.0%" y="74.0%" width="11.0%" height="1%" fill="#ebebeb"/>
<rect x="76.0%" y="74.0%" width="1.0%" height="1%" fill="#131313"/>
<rect x="77.0%" y="74.0%" width="1.0%" height="1%" fill="#ebebeb"/>
<rect x="78.0%" y="74.0%" width="1.0%" height="1%" fill="#131313"/>
<rect x="79.0%" y="74.0%" width="21.0%" height="1%" fill="#ebebeb"/>
<rect x="0.0%" y="75.0%" width="32.0%" height="1%" fill="#ebebeb"/>
<rect x="32.0%" y="75.0%" width="1.0%" height="1%" fill="#131313"/>
<rect x="33.0%" y="75.0%" width="3.0%" height="1%" fill="#ebebeb"/>
<rect x="36.0%" y="75.0%" width="28.999999999999996%" height="1%" fill="#0007ff"/>
<rect x="65.0%" y="75.0%" width="11.0%" height="1%" fill="#ebebeb"/>
<rect x="76.0%" y="75.0%" width="1.0%" height="1%" fill="#131313"/>
<rect x="77.0%" y="75.0%" width="1.0%" height="1%" fill="#ebebeb"/>
<rect x="78.0%" y="75.0%" width="1.0%" height="1%" fill="#131313"/>
<rect x="79.0%" y="75.0%" width="21.0%" height="1%" fill="#ebebeb"/>
<rect x="0.0%" y="76.0%" width="17.0%" height="1%" fill="#ebebeb"/>
<rect x="17.0%" y="76.0%" width="4.0%" height="1%" fill="#131313"/>
<rect x="21.0%" y="76.0%" width="11.0%" height="1%" fill="#ebebeb"/>
<rect x="32.0%" y="76.0%" width="1.0%" height="1%" fill="#131313"/>
<rect x="33.0%" y="76.0%" width="3.0%" height="1%" fill="#ebebeb"/>
<rect x="36.0%" y="76.0%" width="30.0%" height="1%" fill="#131313"/>
<rect x="66.0%" y="76.0%" width="10.0%" height="1%" fill="#ebebeb"/>
<rect x="76.0%" y="76.0%" width="1.0%" height="1%" fill="#131313"/>
<rect x="77.0%" y="76.0%" width="1.0%" height="1%" fill="#ebebeb"/>
<rect x="78.0%" y="76.0%" width="1.0%" height="1%" fill="#131313"/>
<rect x="79.0%" y="76.0%" width="21.0%" height="1%" fill="#ebebeb"/>
<rect x="0.0%" y="77.0%" width="16.0%" height="1%" fill="#ebebeb"/>
<rect x="16.0%" y="77.0%" width="1.0%" height="1%" fill="#131313"/>
<rect x="17.0%" y="77.0%" width="4.0%" height="1%" fill="#ebebeb"/>
<rect x="21.0%" y="77.0%" width="1.0%" height="1%" fill="#131313"/>
<rect x="22.0%" y="77.0%" width="10.0%" height="1%" fill="#ebebeb"/>
<rect x="32.0%" y="77.0%" width="1.0%" height="1%" fill="#131313"/>
<rect x="33.0%" y="77.0%" width="43.0%" height="1%" fill="#ebebeb"/>
<rect x="76.0%" y="77.0%" width="1.0%" height="1%" fill="#131313"/>
<rect x="77.0%" y="77.0%" width="2.0%" height="1%" fill="#ebebeb"/>
<rect x="79.0%" y="77.0%" width="1.0%" height="1%" fill="#131313"/>
<rect x="80.0%" y="77.0%" width="20.0%" height="1%" fill="#ebebeb"/>
<rect x="0.0%" y="78.0%" width="15.0%" height="1%" fill="#ebebeb"/>
<rect x="15.0%" y="78.0%" width="1.0%" height="1%" fill="#131313"/>
<rect x="16.0%" y="78.0%" width="6.0%" height="1%" fill="#ebebeb"/>
<rect x="22.0%" y="78.0%" width="1.0%" height="1%" fill="#131313"/>
<rect x="23.0%" y="78.0%" width="9.0%" height="1%" fill="#0007ff"/>
<rect x="32.0%" y="78.0%" width="1.0%" height="1%" fill="#131313"/>
<rect x="33.0%" y="78.0%" width="43.0%" height="1%" fill="#ebebeb"/>
<rect x="76.0%" y="78.0%" width="1.0%" height="1%" fill="#131313"/>
<rect x="77.0%" y="78.0%" width="2.0%" height="1%" fill="#ebebeb"/>
<rect x="79.0%" y="78.0%" width="1.0%" height="1%" fill="#131313"/>
<rect x="80.0%" y="78.0%" width="20.0%" height="1%" fill="#ebebeb"/>
<rect x="0.0%" y="79.0%" width="12.0%" height="1%" fill="#ebebeb"/>
<rect x="12.0%" y="79.0%" width="4.0%" height="1%" fill="#131313"/>
<rect x="16.0%" y="79.0%" width="6.0%" height="1%" fill="#ebebeb"/>
<rect x="22.0%" y="79.0%" width="11.0%" height="1%" fill="#131313"/>
<rect x="33.0%" y="79.0%" width="43.0%" height="1%" fill="#ebebeb"/>
<rect x="76.0%" y="79.0%" width="1.0%" height="1%" fill="#131313"/>
<rect x="77.0%" y="79.0%" width="3.0%" height="1%" fill="#ebebeb"/>
<rect x="80.0%" y="79.0%" width="1.0%" height="1%" fill="#131313"/>
<rect x="81.0%" y="79.0%" width="19.0%" height="1%" fill="#ebebeb"/>
<rect x="0.0%" y="80.0%" width="11.0%" height="1%" fill="#ebebeb"/>
<rect x="11.0%" y="80.0%" width="1.0%" height="1%" fill="#131313"/>
<rect x="12.0%" y="80.0%" width="6.0%" height="1%" fill="#ebebeb"/>
<rect x="18.0%" y="80.0%" width="2.0%" height="1%" fill="#131313"/>
<rect x="20.0%" y="80.0%" width="2.0%" height="1%" fill="#ebebeb"/>
<rect x="22.0%" y="80.0%" width="1.0%" height="1%" fill="#131313"/>
<rect x="23.0%" y="80.0%" width="2.0%" height="1%" fill="#ebebeb"/>
<rect x="25.0%" y="80.0%" width="1.0%" height="1%" fill="#131313"/>
<rect x="26.0%" y="80.0%" width="3.0%" height="1%" fill="#ebebeb"/>
<rect x="28.999999999999996%" y="80.0%" width="1.0%" height="1%" fill="#131313"/>
<rect x="30.0%" y="80.0%" width="2.0%" height="1%" fill="#ebebeb"/>
<rect x="32.0%" y="80.0%" width="1.0%" height="1%" fill="#131313"/>
<rect x="33.0%" y="80.0%" width="43.0%" height="1%" fill="#ebebeb"/>
<rect x="76.0%" y="80.0%" width="1.0%" height="1%" fill="#131313"/>
<rect x="77.0%" y="80.0%" width="4.0%" height="1%" fill="#ebebeb"/>
<rect x="81.0%" y="80.0%" width="1.0%" height="1%" fill="#131313"/>
<rect x="82.0%" y="80.0%" width="18.0%" height="1%" fill="#ebebeb"/>
<rect x="0.0%" y="81.0%" width="18.0%" height="1%" fill="#ebebeb"/>
<rect x="18.0%" y="81.0%" width="2.0%" height="1%" fill="#131313"/>
<rect x="20.0%" y="81.0%" width="2.0%" height="1%" fill="#ebebeb"/>
<rect x="22.0%" y="81.0%" width="1.0%" height="1%" fill="#131313"/>
<rect x="23.0%" y="81.0%" width="2.0%" height="1%" fill="#ebebeb"/>
<rect x="25.0%" y="81.0%" width="1.0%" height="1%" fill="#131313"/>
<rect x="26.0%" y="81.0%" width="3.0%" height="1%" fill="#ebebeb"/>
<rect x="28.999999999999996%" y="81.0%" width="1.0%" height="1%" fill="#131313"/>
<rect x="30.0%" y="81.0%" width="2.0%" height="1%" fill="#ebebeb"/>
<rect x="32.0%" y="81.0%" width="1.0%" height="1%" fill="#131313"/>
<rect x="33.0%" y="81.0%" width="49.0%" height="1%" fill="#ebebeb"/>
<rect x="82.0%" y="81.0%" width="1.0%" height="1%" fill="#131313"/>
<rect x="83.0%" y="81.0%" width="17.0%" height="1%" fill="#ebebeb"/>
<rect x="0.0%" y="82.0%" width="20.0%" height="1%" fill="#0007ff"/>
<rect x="20.0%" y="82.0%" width="2.0%" height="1%" fill="#ebebeb"/>
<rect x="22.0%" y="82.0%" width="1.0%" height="1%" fill="#131313"/>
<rect x="23.0%" y="82.0%" width="2.0%" height="1%" fill="#ebebeb"/>
<rect x="25.0%" y="82.0%" width="1.0%" height="1%" fill="#131313"/>
<rect x="26.0%" y="82.0%" width="3.0%" height="1%" fill="#ebebeb"/>
<rect x="28.999999999999996%" y="82.0%" width="1.0%" height="1%" fill="#131313"/>
<rect x="30.0%" y="82.0%" width="2.0%" height="1%" fill="#ebebeb"/>
<rect x="32.0%" y="82.0%" width="1.0%" height="1%" fill="#131313"/>
<rect x="33.0%" y="82.0%" width="50.0%" height="1%" fill="#ebebeb"/>
<rect x="83.0%" y="82.0%" width="1.0%" height="1%" fill="#131313"/>
<rect x="84.0%" y="82.0%" width="16.0%" height="1%" fill="#ebebeb"/>
<rect x="0.0%" y="83.0%" width="20.0%" height="1%" fill="#131313"/>
<rect x="20.0%" y="83.0%" width="2.0%" height="1%" fill="#ebebeb"/>
<rect x="22.0%" y="83.0%" width="1.0%" height="1%" fill="#131313"/>
<rect x="23.0%" y="83.0%" width="2.0%" height="1%" fill="#ebebeb"/>
<rect x="25.0%" y="83.0%" width="1.0%" height="1%" fill="#131313"/>
<rect x="26.0%" y="83.0%" width="3.0%" height="1%" fill="#ebebeb"/>
<rect x="28.999999999999996%" y="83.0%" width="1.0%" height="1%" fill="#131313"/>
<rect x="30.0%" y="83.0%" width="2.0%" height="1%" fill="#ebebeb"/>
<rect x="32.0%" y="83.0%" width="1.0%" height="1%" fill="#131313"/>
<rect x="33.0%" y="83.0%" width="51.0%" height="1%" fill="#ebebeb"/>
<rect x="84.0%" y="83.0%" width="3.0%" height="1%" fill="#131313"/>
<rect x="87.0%" y="83.0%" width="13.0%" height="1%" fill="#ebebeb"/>
<rect x="0.0%" y="84.0%" width="23.0%" height="1%" fill="#ebebeb"/>
<rect x="23.0%" y="84.0%" width="1.0%" height="1%" fill="#131313"/>
<rect x="24.0%" y="84.0%" width="1.0%" height="1%" fill="#ebebeb"/>
<rect x="25.0%" y="84.0%" width="1.0%" height="1%" fill="#131313"/>
<rect x="26.0%" y="84.0%" width="3.0%" height="1%" fill="#ebebeb"/>
<rect x="28.999999999999996%" y="84.0%" width="1.0%" height="1%" fill="#131313"/>
<rect x="30.0%" y="84.0%" width="1.0%" height="1%" fill="#ebebeb"/>
<rect x="31.0%" y="84.0%" width="1.0%" height="1%" fill="#131313"/>
<rect x="32.0%" y="84.0%" width="55.00000000000001%" height="1%" fill="#ebebeb"/>
<rect x="87.0%" y="84.0%" width="2.0%" height="1%" fill="#131313"/>
<rect x="89.0%" y="84.0%" width="11.0%" height="1%" fill="#ebebeb"/>
<rect x="0.0%" y="85.0%" width="24.0%" height="1%" fill="#ebebeb"/>
<rect x="24.0%" y="85.0%" width="2.0%" height="1%" fill="#131313"/>
<rect x="26.0%" y="85.0%" width="3.0%" height="1%" fill="#ebebeb"/>
<rect x="28.999999999999996%" y="85.0%" width="2.0%" height="1%" fill="#131313"/>
<rect x="31.0%" y="85.0%" width="57.99999999999999%" height="1%" fill="#ebebeb"/>
<rect x="89.0%" y="85.0%" width="1.0%" height="1%" fill="#131313"/>
<rect x="90.0%" y="85.0%" width="10.0%" height="1%" fill="#ebebeb"/>
<rect x="0.0%" y="86.0%" width="24.0%" height="1%" fill="#ebebeb"/>
<rect x="24.0%" y="86.0%" width="2.0%" height="1%" fill="#131313"/>
<rect x="26.0%" y="86.0%" width="3.0%" height="1%" fill="#ebebeb"/>
<rect x="28.999999999999996%" y="86.0%" width="2.0%" height="1%" fill="#131313"/>
<rect x="31.0%" y="86.0%" width="57.99999999999999%" height="1%" fill="#ebebeb"/>
<rect x="89.0%" y="86.0%" width="1.0%" height="1%" fill="#131313"/>
<rect x="90.0%" y="86.0%" width="10.0%" height="1%" fill="#ebebeb"/>
<rect x="0.0%" y="87.0%" width="24.0%" height="1%" fill="#ebebeb"/>
<rect x="24.0%" y="87.0%" width="2.0%" height="1%" fill="#131313"/>
<rect x="26.0%" y="87.0%" width="3.0%" height="1%" fill="#ebebeb"/>
<rect x="28.999999999999996%" y="87.0%" width="2.0%" height="1%" fill="#131313"/>
<rect x="31.0%" y="87.0%" width="59.0%" height="1%" fill="#ebebeb"/>
<rect x="90.0%" y="87.0%" width="1.0%" height="1%" fill="#131313"/>
<rect x="91.0%" y="87.0%" width="9.0%" height="1%" fill="#ebebeb"/>
<rect x="0.0%" y="88.0%" width="90.0%" height="1%" fill="#ebebeb"/>
<rect x="90.0%" y="88.0%" width="1.0%" height="1%" fill="#131313"/>
<rect x="91.0%" y="88.0%" width="9.0%" height="1%" fill="#ebebeb"/>
<rect x="0.0%" y="89.0%" width="90.0%" height="1%" fill="#ebebeb"/>
<rect x="90.0%" y="89.0%" width="1.0%" height="1%" fill="#131313"/>
<rect x="91.0%" y="89.0%" width="9.0%" height="1%" fill="#ebebeb"/>
<rect x="0.0%" y="90.0%" width="90.0%" height="1%" fill="#ebebeb"/>
<rect x="90.0%" y="90.0%" width="1.0%" height="1%" fill="#131313"/>
<rect x="91.0%" y="90.0%" width="9.0%" height="1%" fill="#ebebeb"/>
<rect x="0.0%" y="91.0%" width="90.0%" height="1%" fill="#ebebeb"/>
<rect x="90.0%" y="91.0%" width="1.0%" height="1%" fill="#131313"/>
<rect x="91.0%" y="91.0%" width="9.0%" height="1%" fill="#ebebeb"/>
<rect x="0.0%" y="92.0%" width="90.0%" height="1%" fill="#ebebeb"/>
<rect x="90.0%" y="92.0%" width="5.0%" height="1%" fill="#131313"/>
<rect x="95.0%" y="92.0%" width="5.0%" height="1%" fill="#ebebeb"/>
<rect x="0.0%" y="93.0%" width="90.0%" height="1%" fill="#ebebeb"/>
<rect x="90.0%" y="93.0%" width="1.0%" height="1%" fill="#131313"/>
<rect x="91.0%" y="93.0%" width="4.0%" height="1%" fill="#ebebeb"/>
<rect x="95.0%" y="93.0%" width="1.0%" height="1%" fill="#131313"/>
<rect x="96.0%" y="93.0%" width="4.0%" height="1%" fill="#ebebeb"/>
<rect x="0.0%" y="94.0%" width="90.0%" height="1%" fill="#ebebeb"/>
<rect x="90.0%" y="94.0%" width="1.0%" height="1%" fill="#131313"/>
<rect x="91.0%" y="94.0%" width="5.0%" height="1%" fill="#ebebeb"/>
<rect x="96.0%" y="94.0%" width="1.0%" height="1%" fill="#131313"/>
<rect x="97.0%" y="94.0%" width="3.0%" height="1%" fill="#ebebeb"/>
<rect x="0.0%" y="95.0%" width="90.0%" height="1%" fill="#ebebeb"/>
<rect x="90.0%" y="95.0%" width="1.0%" height="1%" fill="#131313"/>
<rect x="91.0%" y="95.0%" width="5.0%" height="1%" fill="#ebebeb"/>
<rect x="96.0%" y="95.0%" width="1.0%" height="1%" fill="#131313"/>
<rect x="97.0%" y="95.0%" width="3.0%" height="1%" fill="#ebebeb"/>
<rect x="0.0%" y="96.0%" width="97.0%" height="1%" fill="#ebebeb"/>
<rect x="97.0%" y="96.0%" width="1.0%" height="1%" fill="#131313"/>
<rect x="98.0%" y="96.0%" width="2.0%" height="1%" fill="#ebebeb"/>
<rect x="0.0%" y="97.0%" width="97.0%" height="1%" fill="#ebebeb"/>
<rect x="97.0%" y="97.0%" width="1.0%" height="1%" fill="#131313"/>
<rect x="98.0%" y="97.0%" width="2.0%" height="1%" fill="#ebebeb"/>
<rect x="0.0%" y="98.0%" width="97.0%" height="1%" fill="#ebebeb"/>
<rect x="97.0%" y="98.0%" width="1.0%" height="1%" fill="#131313"/>
<rect x="98.0%" y="98.0%" width="2.0%" height="1%" fill="#ebebeb"/>
<rect x="0.0%" y="99.0%" width="97.0%" height="1%" fill="#ebebeb"/>
<rect x="97.0%" y="99.0%" width="1.0%" height="1%" fill="#131313"/>
<rect x="98.0%" y="99.0%" width="2.0%" height="1%" fill="#ebebeb"/>
</svg>