<svg id="tower" xmlns="http://www.w3.org/2000/svg" shape-rendering="crispEdges" viewBox="0 0 32 32">
	<style>
	#tower {
		overflow: hidden;
		outline: none;
		box-shadow: none;
		height: 100%;
		background: #181C19;
	}
	*:focus {
		outline: none;
		box-shadow: none;
	}
	.lights {
		opacity: 0;
		transition: opacity 1s ease;
		pointer-events: none;
	}
	.light .lights {
		opacity: 1;
	}
	.pw-x {
		animation: pw-anim-x 1s steps(1) -0.8364s infinite;
		transform-origin: center;
		transform-box: fill-box;
	}
	@keyframes pw-anim-x {
		0% {
		transform: scaleX(1);
		}

		50% {
		transform: scaleX(-1);
		}

		100% {
		transform: scaleX(1);
		}
	}
	.pw-y {
		animation: pw-anim-y 1s steps(1) -0.8364s infinite;
		transform-origin: center;
		transform-box: fill-box;
	}
	@keyframes pw-anim-y {
		0% {
		transform: scaleY(1);
		}

		50% {
		transform: scaleY(-1);
		}

		100% {
		transform: scaleY(1);
		}
	}
	.pw-ml {
		animation: pw-anim-ml 1s steps(1) -0.1364s infinite;
		transform-origin: center;
		transform-box: fill-box;
	}
	@keyframes pw-anim-ml {
		0% {
		transform: translateX(0);
		}

		50% {
		transform: translateX(-1px);
		}

		100% {
		transform: translateX(0);
		}
	}
	.pw-mr {
		animation: pw-anim-mr 1s steps(1) 0.6364s infinite;
		transform-origin: center;
		transform-box: fill-box;
	}
	@keyframes pw-anim-mr {
		0% {
		transform: translateX(0);
		}

		50% {
		transform: translateX(1px);
		}

		100% {
		transform: translateX(0);
		}
	}
	.pw-glow-66 {
		animation: pw-anim-glow-66 4s -0.1364s infinite;
	}
	@keyframes pw-anim-glow-66 {
		0% {
		opacity: 0.33;
		}

		50% {
		opacity: 0.66;
		}

		100% {
		opacity: 0.33;
		}
	}
	.pw-glow-33 {
		animation: pw-anim-glow-33 4s -0.6364s infinite;
	}
	@keyframes pw-anim-glow-33 {
		0% {
		opacity: 0.15;
		}

		50% {
		opacity: 0.33;
		}

		100% {
		opacity: 0.15;
		}
	}
	.lights {
		animation: pw-anim-flicker 2s steps(1) -0.8364s infinite;
	}
	@keyframes pw-anim-flicker {
		0% {
		fill: #fff;
		}

		10% {
		fill: #61D3E3;
		}

		20% {
		fill: #fff;
		}

		50% {
		fill: #61D3E3;
		}
		60% {
		fill: #fff;
		}

		80% {
		fill: #61D3E3;
		}

		100% {
		fill: #fff;
		}
	}
	</style>
	<g class="shack">
		<path fill="#181C19" d="M32 0v32H0V0h32Z" />
		<g class="tower">
			<path fill="#000" d="M20 17h1v2h-1v-2Zm2 0v2h1v-2h-1Zm-2 4v2h1v-3h-1v1Zm2 0v2h1v-3h-1v1Z" />
			<path fill="#673931" d="M27 25v1H16v-1h11Z" />
			<path fill="#477238" d="M19 14h-1v-1h1v1Zm-1 0h-1v1h1v-1Zm-1 1h-1v1h1v-1Zm10 0h-1v1h1v-1Zm1 2v-1h-1v1h1Zm1 1v-1h-1v1h1Zm2 7h-3v1H12v1H7v2h6v-1h14v-1h5v-2h-1ZM3 27H2v1H0v2h2v-1h3v-2H3Z" />
			<path fill="#452A1B" d="M22 11v1h-1v-1h1Zm-2 2h1v-1h-1v1Zm2-1v1h1v-1h-1Zm-3 2h1v-1h-1v1Zm4-1v1h1v-1h-1Zm-5 2h1v-1h-1v1Zm6-1v1h1v-1h-1Zm-7 2h1v-1h-1v1Zm8-1v1h1v-1h-1Zm-9 2h1v-1h-1v1Zm10-1v1h1v-1h-1Zm-11 2h1v-1h-1v1Zm8 0v1h-1v-2h1v-1h-3v1h1v2h-1v-2h-1v6h1v-3h1v3h-1v1h3v-1h-1v-3h1v3h1v-6h-1v1Zm4-1v1h1v-1h-1Zm-13 2h1v-1h-1v1Zm14-1v1h1v-1h-1ZM5 21v2H4v1h1v6h1V20H5v1Zm-2 1v1h1v-1H3Zm0 8v1h2v-1H3Z" />
			<path fill="#4F342F" d="M27 17v1h-1v7h-9v-7h-1v-1h1v-1h1v-1h1v-1h1v-1h1v-1h1v1h1v1h1v1h1v1h1v1h1Zm-4 7v-1h1v-6h-1v-1h-3v1h-1v6h1v1h3Zm-8-5h1v-1h-1v1Zm12-1v1h1v-1h-1ZM7 22v-1H6v9h2v-1H7v-5h1v-1H7v-1Zm2 9v-1H8v1h1Z" />
			<path fill="#61A53F" d="M32 27v5H0v-2h2v-1h3v1H3v1h2v-1h3v1h1v-1H8v-1h5v-1h14v-1h5Z" />
			<path fill="#F8F644" d="M20 17h1v2h-1v-2Zm2 0v2h1v-2h-1Zm-2 4v2h1v-3h-1v1Zm2 0v2h1v-3h-1v1Z" />
			<path fill="#97EDCA" d="M11 4h-1V3h2v1h-1ZM8 6h1V5H8v1Zm4 0v1h1V6h-1Zm-2 1v1h2V7h-2Z" />
			<path fill="#D0FFEA" d="M13 4V3h-1v1h-2V3h2V2H9v1H8v1H7v3h1v1h1v1h3V8h-2V7h2V6h1v1h1V4h-1ZM8 5h1v1H8V5Zm4 2h1v1h-1V7Z" />
			<path fill="#D0FFEA" d="M10 2H9V1h3v1h-2ZM9 2H8v1h1V2Zm4 1V2h-1v1h1ZM8 3H7v1h1V3Zm6 1V3h-1v1h1Zm0 0v3h1V4h-1ZM7 5V4H6v3h1V5Zm0 2v1h1V7H7Zm6 1h1V7h-1v1ZM8 8v1h1V8H8Zm4 1h1V8h-1v1Zm-2 0H9v1h3V9h-2Z" class="pw-glow-33" opacity=".259"/>
			<g class="pw-y">
				<path fill="#4F342F" d="M2 21v2h1v-3H2v1Zm7 1H8v1h2v-1H9Zm-8 2v1h1v-2H1v1Zm10-1h-1v1h1v-1Zm1 1h-1v1h1v-1Z" />
			</g>
			<g class="pw-x">
				<path fill="#4F342F" d="M7 17H6v-2h1v2Zm-3 0H3v1h1v-1Zm2 0H5v1h1v-1Zm-1 1H4v1h1v-1Zm5 1h1v-1H9v-2H8v3h2Zm-4 0H5v1h1v-1Zm2 1v-1H7v2h1v-1Z" />
			</g>
		</g>
		<g class="lights">
			<path fill="#F8F644" d="M24 17v6h-1v-3h-1v3h1v1h-3v-1h1v-3h-1v3h-1v-6h1v2h1v-2h-1v-1h3v1h-1v2h1v-2h1Z" class="pw-glow-66" opacity=".522"/>
			<path fill="#F8F644" d="M24 18v-1h1v6h-1v-5Zm-1 6h1v-1h-1v1Zm-2 0h-1v1h3v-1h-2Zm3-7v-1h-1v1h1Zm-4-1h-1v1h1v-1Zm2 0h1v-1h-3v1h2Zm-3 6v-5h-1v6h1v-1Zm0 1v1h1v-1h-1Zm11 8v-1h-1v-2h-1v-1h-1v-1H16v1h-1v1h-1v2h-1v1h-1v1h19v-1h-1Z" class="pw-glow-33" opacity=".129"/>
		</g>
  </g>
  <script type="text/javascript">
    <![CDATA[
      let root = document.getElementById('tower');
      if (root) {
        //find general objects
        let pwRoot = root;
        let pwTower = pwRoot.querySelector('.tower');
        pwTower.addEventListener('click', () => {
          lights();
        });
        let lights = function() {
          pwRoot.classList.toggle('light');
        }
      }
    ]]>
  </script>
</svg>