<?xml version="1.0" standalone="no"?>
<!DOCTYPE svg PUBLIC "-//W3C//DTD SVG 20010904//EN"
 "http://www.w3.org/TR/2001/REC-SVG-20010904/DTD/svg10.dtd">
<svg version="1.0" xmlns="http://www.w3.org/2000/svg"
 width="256.000000pt" height="256.000000pt" viewBox="0 0 256.000000 256.000000"
 preserveAspectRatio="xMidYMid meet">
<metadata>
Created by potrace 1.16, written by Peter Selinger 2001-2019
</metadata>
<g transform="translate(0.000000,256.000000) scale(0.100000,-0.100000)"
fill="#000000" stroke="none">
<path d="M2160 2120 l0 -40 40 0 40 0 0 40 0 40 -40 0 -40 0 0 -40z"/>
<path d="M2040 1400 l0 -39 -62 -4 c-58 -3 -57 -3 20 -5 l82 -2 0 45 c0 38 -3
45 -20 45 -17 0 -20 -7 -20 -40z"/>
<path d="M2400 1160 l0 -120 -40 0 -40 0 0 40 0 40 -40 0 -40 0 0 -40 0 -40
-40 0 -40 0 0 -40 0 -40 40 0 40 0 0 -80 0 -80 -80 0 -80 0 0 -40 0 -40 80 0
80 0 0 -80 0 -80 -80 0 -80 0 0 -40 0 -40 80 0 80 0 0 -40 0 -40 40 0 40 0 0
40 0 40 40 0 40 0 0 -40 0 -40 40 0 40 0 0 440 0 440 -40 0 -40 0 0 -120z m0
-280 l0 -80 -40 0 -40 0 0 80 0 80 40 0 40 0 0 -80z m0 -240 l0 -80 -40 0 -40
0 0 80 0 80 40 0 40 0 0 -80z"/>
<path d="M1880 680 l0 -40 -462 -3 -463 -2 483 -3 482 -2 0 45 c0 38 -3 45
-20 45 -17 0 -20 -7 -20 -40z"/>
<path d="M760 520 l0 -40 -262 -3 -263 -2 283 -3 282 -2 0 45 c0 38 -3 45 -20
45 -17 0 -20 -7 -20 -40z"/>
<path d="M1040 480 l0 -80 40 0 40 0 0 80 0 80 -40 0 -40 0 0 -80z"/>
<path d="M1200 480 l0 -80 40 0 40 0 0 80 0 80 -40 0 -40 0 0 -80z"/>
<path d="M1360 480 l0 -80 40 0 40 0 0 80 0 80 -40 0 -40 0 0 -80z"/>
<path d="M1520 480 l0 -80 40 0 40 0 0 80 0 80 -40 0 -40 0 0 -80z"/>
<path d="M1680 480 l0 -80 40 0 40 0 0 80 0 80 -40 0 -40 0 0 -80z"/>
<path d="M178 393 c12 -2 32 -2 45 0 12 2 2 4 -23 4 -25 0 -35 -2 -22 -4z"/>
<path d="M98 313 c12 -2 32 -2 45 0 12 2 2 4 -23 4 -25 0 -35 -2 -22 -4z"/>
</g>
</svg>
