<?xml version="1.0" standalone="no"?>
<!DOCTYPE svg PUBLIC "-//W3C//DTD SVG 20010904//EN"
 "http://www.w3.org/TR/2001/REC-SVG-20010904/DTD/svg10.dtd">
<svg version="1.0" xmlns="http://www.w3.org/2000/svg"
 width="768.000000pt" height="768.000000pt" viewBox="0 0 768.000000 768.000000"
 preserveAspectRatio="xMidYMid meet">
<metadata>
Created by potrace 1.16, written by Peter Selinger 2001-2019
</metadata>
<g transform="translate(0.000000,768.000000) scale(0.100000,-0.100000)"
fill="#000000" stroke="none">
<path d="M4680 3420 c0 -39 -1 -40 -35 -40 -34 0 -35 -1 -35 -40 l0 -40 -40 0
-40 0 0 -650 0 -650 40 0 40 0 0 650 0 650 35 0 c34 0 35 1 35 40 l0 40 310 0
310 0 0 -40 0 -40 40 0 40 0 0 -420 0 -420 35 0 35 0 0 150 0 150 195 0 195 0
0 -650 0 -650 35 0 35 0 0 270 0 270 40 0 40 0 0 -115 0 -115 40 0 40 0 0 -80
0 -80 35 0 c33 0 35 -2 35 -35 0 -34 1 -35 40 -35 l40 0 0 -40 0 -40 40 0 40
0 0 -40 c0 -39 1 -40 35 -40 33 0 35 -2 35 -35 0 -34 1 -35 40 -35 l40 0 0
-40 0 -40 115 0 115 0 0 -40 0 -40 80 0 80 0 0 -75 0 -75 35 0 35 0 0 -345 0
-345 40 0 40 0 0 115 0 115 155 0 155 0 0 -40 c0 -39 1 -40 35 -40 l35 0 0
-75 0 -75 40 0 40 0 0 -155 0 -155 40 0 40 0 0 155 0 155 -40 0 -40 0 0 75 0
75 -40 0 -40 0 0 40 c0 39 -1 40 -35 40 -33 0 -35 2 -35 35 l0 35 -155 0 -155
0 0 195 0 195 -40 0 -40 0 0 75 0 75 -35 0 c-34 0 -35 1 -35 40 l0 40 -80 0
-80 0 0 40 0 40 -115 0 -115 0 0 35 c0 34 -1 35 -40 35 l-40 0 0 40 c0 39 -1
40 -35 40 -34 0 -35 1 -35 40 l0 40 -40 0 c-39 0 -40 1 -40 35 0 34 -1 35 -40
35 l-40 0 0 80 0 80 -35 0 -35 0 0 115 0 115 -40 0 c-39 0 -40 1 -40 35 0 34
-1 35 -40 35 l-40 0 0 345 0 345 -35 0 c-34 0 -35 1 -35 40 l0 40 -195 0 -195
0 0 230 0 230 -35 0 c-34 0 -35 1 -35 40 l0 40 -40 0 -40 0 0 40 0 40 -310 0
-310 0 0 -40z"/>
<path d="M4990 3035 l0 -115 155 0 155 0 0 115 0 115 -155 0 -155 0 0 -115z
m230 0 l0 -35 -75 0 -75 0 0 35 0 35 75 0 75 0 0 -35z"/>
<path d="M4680 2725 l0 -115 155 0 155 0 0 115 0 115 -155 0 -155 0 0 -115z
m240 0 l0 -35 -80 0 -80 0 0 35 0 35 80 0 80 0 0 -35z"/>
<path d="M4990 2345 l0 -115 155 0 155 0 0 115 0 115 -155 0 -155 0 0 -115z
m230 -5 l0 -40 -75 0 -75 0 0 40 0 40 75 0 75 0 0 -40z"/>
<path d="M2610 2340 l0 -40 -40 0 c-39 0 -40 -1 -40 -35 0 -33 -2 -35 -35 -35
l-35 0 0 -310 0 -310 -345 0 -345 0 0 40 0 40 -40 0 -40 0 0 40 0 40 -40 0
c-39 0 -40 1 -40 35 l0 35 -150 0 -150 0 0 -35 c0 -34 -1 -35 -40 -35 l-40 0
0 -40 0 -40 -40 0 -40 0 0 -40 0 -40 -115 0 -115 0 0 -35 c0 -34 -1 -35 -40
-35 l-40 0 0 -40 0 -40 40 0 40 0 0 40 0 40 155 0 155 0 0 75 0 75 40 0 40 0
0 40 0 40 150 0 150 0 0 -40 0 -40 40 0 40 0 0 -230 0 -230 40 0 40 0 0 -40
c0 -39 1 -40 35 -40 l35 0 0 -115 0 -115 80 0 80 0 0 310 0 310 115 0 115 0 0
-310 0 -310 75 0 75 0 0 115 0 115 40 0 40 0 0 40 c0 39 1 40 35 40 l35 0 0
500 0 500 40 0 c39 0 40 1 40 35 l0 35 195 0 195 0 0 -35 c0 -33 2 -35 35 -35
l35 0 0 -115 0 -115 40 0 40 0 0 115 0 115 -40 0 c-39 0 -40 1 -40 35 0 33 -2
35 -35 35 -34 0 -35 1 -35 40 l0 40 -195 0 -195 0 0 -40z m-690 -995 l0 -195
-40 0 -40 0 0 40 c0 39 -1 40 -35 40 l-35 0 0 155 0 155 75 0 75 0 0 -195z
m540 40 l0 -155 -40 0 -40 0 0 -40 0 -40 -40 0 -40 0 0 195 0 195 80 0 80 0 0
-155z"/>
<path d="M2760 1920 l0 -150 1155 0 1155 0 0 35 c0 34 -1 35 -40 35 l-40 0 0
115 0 115 -75 0 -75 0 0 -115 0 -115 -960 0 -960 0 0 115 0 115 -80 0 -80 0 0
-150z"/>
<path d="M1380 1425 l0 -115 -690 0 -690 0 0 -40 0 -40 770 0 770 0 0 155 0
155 -80 0 -80 0 0 -115z"/>
</g>
</svg>
