<?xml version="1.0" standalone="no"?>
<!DOCTYPE svg PUBLIC "-//W3C//DTD SVG 20010904//EN"
 "http://www.w3.org/TR/2001/REC-SVG-20010904/DTD/svg10.dtd">
<svg version="1.0" xmlns="http://www.w3.org/2000/svg"
 width="32.000000pt" height="32.000000pt" viewBox="0 0 32.000000 32.000000"
 preserveAspectRatio="xMidYMid meet">
<metadata>
Created by potrace 1.16, written by Peter Selinger 2001-2019
</metadata>
<g transform="translate(0.000000,32.000000) scale(0.100000,-0.100000)"
fill="#000000" stroke="none">
<path d="M10 299 c0 -5 5 -7 10 -4 6 3 10 8 10 11 0 2 -4 4 -10 4 -5 0 -10 -5
-10 -11z"/>
<path d="M155 300 c3 -5 8 -10 11 -10 2 0 4 5 4 10 0 6 -5 10 -11 10 -5 0 -7
-4 -4 -10z"/>
<path d="M74 239 c-10 -17 13 -36 27 -22 12 12 4 33 -11 33 -5 0 -12 -5 -16
-11z m26 -9 c0 -5 -4 -10 -10 -10 -5 0 -10 5 -10 10 0 6 5 10 10 10 6 0 10 -4
10 -10z"/>
<path d="M236 208 c-3 -13 -6 -33 -6 -44 0 -17 -13 -26 -60 -44 -59 -22 -106
-23 -154 -4 -13 5 -17 4 -13 -3 4 -6 42 -19 85 -28 42 -10 112 -25 155 -35 42
-9 77 -14 77 -11 0 8 -146 41 -179 41 -30 0 -18 13 24 28 17 5 38 13 48 17 11
5 17 3 17 -7 0 -11 50 -38 72 -38 4 0 8 29 10 64 1 35 0 62 -4 59 -5 -2 -8 3
-8 11 0 11 -9 16 -29 16 -21 0 -30 -6 -35 -22z m58 -10 c7 -27 8 -108 1 -108
-2 0 -16 5 -30 12 -19 8 -25 19 -25 42 0 49 11 76 30 76 10 0 20 -10 24 -22z"/>
<path d="M10 160 c0 -5 5 -10 11 -10 5 0 7 5 4 10 -3 6 -8 10 -11 10 -2 0 -4
-4 -4 -10z"/>
<path d="M155 160 c-3 -5 -1 -10 4 -10 6 0 11 5 11 10 0 6 -2 10 -4 10 -3 0
-8 -4 -11 -10z"/>
</g>
</svg>
